<svg width="20" height="20" viewBox="0 0 20 20" fill="none" xmlns="http://www.w3.org/2000/svg">
<path d="M6.91797 12.1568C6.91797 13.3512 7.83464 14.3142 8.97352 14.3142H11.2976C12.2883 14.3142 13.0939 13.4716 13.0939 12.4346C13.0939 11.3049 12.6032 10.9068 11.8717 10.6475L8.14019 9.35124C7.40871 9.09198 6.91797 8.69383 6.91797 7.5642C6.91797 6.52716 7.72352 5.68457 8.71426 5.68457H11.0383C12.1772 5.68457 13.0939 6.64753 13.0939 7.84198" stroke="#18171A" stroke-width="1.5" stroke-linecap="round" stroke-linejoin="round"/>
<path d="M10 4.44434V15.5554" stroke="#18171A" stroke-width="1.5" stroke-linecap="round" stroke-linejoin="round"/>
<path d="M12.6669 18.8891H7.33355C2.88911 18.8891 1.11133 17.1113 1.11133 12.6669V7.33355C1.11133 2.88911 2.88911 1.11133 7.33355 1.11133H12.6669C17.1113 1.11133 18.8891 2.88911 18.8891 7.33355V12.6669C18.8891 17.1113 17.1113 18.8891 12.6669 18.8891Z" stroke="#18171A" stroke-width="1.5" stroke-linecap="round" stroke-linejoin="round"/>
</svg>
