<svg width="34" height="34" viewBox="0 0 34 34" fill="none" xmlns="http://www.w3.org/2000/svg">
<path d="M21.4908 9.96917H21.5072M17.4091 31.1943H6.79654C5.49748 31.1943 4.25163 30.6782 3.33306 29.7597C2.41449 28.8411 1.89844 27.5952 1.89844 26.2962V6.70377C1.89844 5.40471 2.41449 4.15886 3.33306 3.24028C4.25163 2.32171 5.49748 1.80566 6.79654 1.80566H26.3889C27.688 1.80566 28.9339 2.32171 29.8524 3.24028C30.771 4.15886 31.287 5.40471 31.287 6.70377V17.3163" stroke="white" stroke-width="1.86594" stroke-linecap="round" stroke-linejoin="round"/>
<path d="M1.89844 23.0304L10.0619 14.8669C11.5771 13.4089 13.4449 13.4089 14.96 14.8669L20.6745 20.5814" stroke="white" stroke-width="1.86594" stroke-linecap="round" stroke-linejoin="round"/>
<path d="M19.8594 19.7654L21.4921 18.1327C22.6007 17.0665 23.897 16.7792 25.1069 17.2739M28.0229 32.827V23.0308M28.0229 23.0308L32.921 27.9289M28.0229 23.0308L23.1248 27.9289" stroke="white" stroke-width="1.86594" stroke-linecap="round" stroke-linejoin="round"/>
</svg>
