<svg width="18" height="18" viewBox="0 0 18 18" fill="none" xmlns="http://www.w3.org/2000/svg">
<path d="M15.9883 5.35538L15.6178 4.71338C15.338 4.22738 15.1978 3.98438 14.9593 3.88763C14.7215 3.79013 14.4523 3.86738 13.913 4.01963L12.998 4.27763C12.6538 4.35713 12.293 4.31213 11.9795 4.15013L11.7268 4.00463C11.4575 3.83207 11.2504 3.57796 11.1358 3.27938L10.8853 2.53088C10.7203 2.03588 10.6378 1.78838 10.442 1.64738C10.2463 1.50488 9.98526 1.50488 9.46476 1.50488H8.62851C8.10801 1.50488 7.84776 1.50488 7.65126 1.64738C7.45551 1.78838 7.37376 2.03588 7.20876 2.53088L6.95826 3.27938C6.84342 3.57806 6.63607 3.83219 6.36651 4.00463L6.11376 4.15088C5.80026 4.31213 5.43876 4.35713 5.09526 4.27838L4.18026 4.01963C3.64101 3.86738 3.37176 3.79088 3.13401 3.88763C2.89551 3.98438 2.75526 4.22738 2.47551 4.71263L2.10576 5.35538C1.84326 5.81138 1.71201 6.03863 1.73751 6.28088C1.76301 6.52388 1.93851 6.71888 2.28951 7.10963L3.06276 7.97438C3.25176 8.21363 3.38601 8.63063 3.38601 9.00563C3.38601 9.38063 3.25176 9.79763 3.06351 10.0369L2.28951 10.9009C1.93851 11.2916 1.76301 11.4874 1.73751 11.7296C1.71201 11.9719 1.84251 12.1999 2.10501 12.6551L2.47551 13.2979C2.75526 13.7831 2.89551 14.0261 3.13401 14.1229C3.37251 14.2196 3.64101 14.1439 4.18026 13.9909L5.09526 13.7329C5.43943 13.6541 5.80036 13.6993 6.11451 13.8604L6.36651 14.0059C6.63651 14.1784 6.84351 14.4334 6.95751 14.7319L7.20801 15.4796C7.37301 15.9746 7.45551 16.2221 7.65126 16.3646C7.84776 16.5056 8.10801 16.5056 8.62851 16.5056H9.46476C9.98526 16.5056 10.2463 16.5056 10.442 16.3639C10.6378 16.2221 10.7203 15.9746 10.8845 15.4796L11.1358 14.7319C11.2498 14.4326 11.4568 14.1784 11.7268 14.0059L11.9788 13.8604C12.2938 13.6991 12.6538 13.6534 12.9988 13.7329L13.9138 13.9909C14.4523 14.1439 14.7215 14.2204 14.9593 14.1236C15.1978 14.0261 15.338 13.7831 15.6178 13.2979L15.9875 12.6551C16.25 12.1999 16.3813 11.9726 16.3558 11.7296C16.3303 11.4866 16.1548 11.2916 15.8038 10.9009L15.0305 10.0369C14.8415 9.79688 14.7073 9.38063 14.7073 9.00563C14.7073 8.63063 14.8415 8.21363 15.0298 7.97438L15.8038 7.10963C16.1548 6.71963 16.3303 6.52388 16.3558 6.28088C16.3813 6.03788 16.2508 5.81138 15.9883 5.35538Z" stroke="white" stroke-width="1.5" stroke-linecap="round" stroke-linejoin="round"/>
<path d="M11.6406 9C11.6406 9.69619 11.3641 10.3639 10.8718 10.8562C10.3795 11.3484 9.71182 11.625 9.01562 11.625C8.31943 11.625 7.65175 11.3484 7.15947 10.8562C6.66719 10.3639 6.39063 9.69619 6.39062 9C6.39063 8.30381 6.66719 7.63613 7.15947 7.14384C7.65175 6.65156 8.31943 6.375 9.01562 6.375C9.71182 6.375 10.3795 6.65156 10.8718 7.14384C11.3641 7.63613 11.6406 8.30381 11.6406 9Z" stroke="white" stroke-width="1.5" stroke-linecap="round" stroke-linejoin="round"/>
</svg>
