<svg width="19" height="19" viewBox="0 0 19 19" fill="none" xmlns="http://www.w3.org/2000/svg">
<path d="M8.54632 8.76699V6.06699L12.832 9.66699L8.54632 13.267V10.567H0.832031V8.76699H8.54632ZM2.08157 12.367H3.90191C4.91914 15.0056 7.38285 16.867 10.2606 16.867C14.0477 16.867 17.1177 13.6435 17.1177 9.66699C17.1177 5.69054 14.0477 2.46699 10.2606 2.46699C7.38285 2.46699 4.91914 4.32835 3.90191 6.96699H2.08157C3.17381 3.31559 6.42263 0.666992 10.2606 0.666992C14.9944 0.666992 18.832 4.69643 18.832 9.66699C18.832 14.6375 14.9944 18.667 10.2606 18.667C6.42263 18.667 3.17381 16.0184 2.08157 12.367Z" fill="white"/>
</svg>
