<svg width="26" height="22" viewBox="0 0 26 22" fill="none" xmlns="http://www.w3.org/2000/svg">
<path d="M13 1.66406C7.99015 1.66406 4.24803 4.91793 2.02316 7.58319C0.353608 9.58321 0.353608 12.4116 2.02316 14.4116C4.24803 17.0769 7.99015 20.3307 13 20.3307C18.0099 20.3307 21.752 17.0769 23.9769 14.4116C25.6464 12.4116 25.6464 9.58321 23.9769 7.58319C21.752 4.91793 18.0099 1.66406 13 1.66406Z" stroke="white" stroke-width="1.5" stroke-linecap="round" stroke-linejoin="round"/>
<path d="M13 14.9974C15.2091 14.9974 17 13.2065 17 10.9974C17 8.78826 15.2091 6.9974 13 6.9974C10.7909 6.9974 9 8.78826 9 10.9974C9 13.2065 10.7909 14.9974 13 14.9974Z" stroke="white" stroke-width="1.5" stroke-linecap="round" stroke-linejoin="round"/>
</svg>
