<svg width="21" height="18" viewBox="0 0 21 18" fill="none" xmlns="http://www.w3.org/2000/svg">
<path d="M14.3 2.54816C13.54 2.54803 12.8103 2.84628 12.2679 3.37873C11.7256 3.91117 11.4139 4.63526 11.4 5.39516L11.372 6.97016C11.3704 7.05472 11.3509 7.13799 11.3148 7.21448C11.2787 7.29098 11.2269 7.35899 11.1627 7.41404C11.0985 7.46909 11.0233 7.50995 10.9422 7.53392C10.8611 7.5579 10.7758 7.56445 10.692 7.55316L9.13102 7.34116C7.07702 7.06116 5.10902 6.11516 3.22102 4.54216C2.62302 7.85216 3.79102 10.1452 6.60402 11.9142L8.35102 13.0122C8.43403 13.0643 8.50299 13.136 8.55187 13.221C8.60075 13.306 8.62806 13.4017 8.63141 13.4996C8.63477 13.5976 8.61407 13.6949 8.57111 13.7831C8.52816 13.8712 8.46426 13.9474 8.38502 14.0052L6.79302 15.1682C7.74002 15.2272 8.63902 15.1852 9.38502 15.0372C14.103 14.0952 17.24 10.5452 17.24 4.68916C17.24 4.21116 16.228 2.54816 14.3 2.54816ZM9.40002 5.35816C9.41747 4.39421 9.71891 3.45683 10.2666 2.66338C10.8142 1.86993 11.5838 1.25568 12.4789 0.897528C13.3741 0.539376 14.3549 0.453241 15.2988 0.649909C16.2426 0.846576 17.1074 1.31731 17.785 2.00316C18.496 1.99816 19.101 2.17816 20.454 1.35816C20.119 2.99816 19.954 3.71016 19.24 4.68916C19.24 12.3312 14.543 16.0472 9.77702 16.9982C6.50902 17.6502 1.75702 16.5792 0.39502 15.1572C1.08902 15.1032 3.90902 14.8002 5.53902 13.6072C4.16002 12.6982 -1.32898 9.46816 2.27802 0.784161C3.97102 2.76116 5.68802 4.10716 7.42802 4.82116C8.58602 5.29616 8.87002 5.28616 9.40102 5.35916L9.40002 5.35816Z" fill="white"/>
</svg>
