<svg width="31" height="30" viewBox="0 0 31 30" fill="none" xmlns="http://www.w3.org/2000/svg">
<path d="M29.8055 17.8757C29.2012 20.7871 27.6991 23.443 25.5051 25.4792C23.311 27.5155 20.5323 28.8325 17.5499 29.2498V26.3351C19.7527 25.9475 21.7964 24.9442 23.4382 23.4444C25.08 21.9446 26.2508 20.0113 26.8116 17.8743L29.8055 17.8757ZM4.20295 17.8757C4.75768 19.9881 5.90862 21.9017 7.52202 23.3943C9.13542 24.8869 11.145 25.8972 13.3173 26.3077V29.2297C10.3642 28.7858 7.62004 27.4591 5.45495 25.4287C3.28986 23.3982 1.80795 20.7615 1.20908 17.8743H4.20295V17.8757ZM24.2613 13.5561V16.4349H22.8023C21.305 16.4349 19.865 17.0026 18.7801 18.0207C17.6952 19.0388 17.0485 20.4293 16.9736 21.9046L16.9663 22.1925V23.6319H14.0483V22.1925C14.0483 20.7153 13.4728 19.2946 12.4409 18.2243C11.4089 17.154 9.9995 16.516 8.50408 16.4421L8.21228 16.4349H6.75328V13.5561H24.2613ZM15.5073 0.601562C23.0722 0.601562 29.2934 6.28285 30.0244 13.5561H27.0888C26.7328 10.7736 25.3598 8.21491 23.2275 6.36011C21.0952 4.50531 18.3501 3.4819 15.5073 3.4819C12.6645 3.4819 9.91941 4.50531 7.78709 6.36011C5.65477 8.21491 4.28178 10.7736 3.92574 13.5561H0.98877C1.72119 6.28285 7.94237 0.601562 15.5073 0.601562Z" fill="white"/>
</svg>
