<svg width="24" height="24" viewBox="0 0 24 24" fill="none" xmlns="http://www.w3.org/2000/svg">
<path d="M21.6341 0.596109C21.3496 0.619156 21.0703 0.693473 20.8071 0.81616H20.8036C20.551 0.927665 19.35 1.49013 17.5241 2.3427L10.981 5.41059C6.28594 7.6111 1.67067 9.77805 1.67067 9.77805L1.72563 9.75437C1.72563 9.75437 1.40742 9.87081 1.07504 10.1244C0.869696 10.2699 0.692996 10.4602 0.555634 10.6839C0.392545 10.9503 0.261364 11.3579 0.310113 11.7792C0.389886 12.4917 0.804701 12.919 1.10252 13.1548C1.40388 13.3936 1.69106 13.5051 1.69106 13.5051H1.69815L6.02623 15.1284C6.22035 15.8221 7.34513 19.9389 7.61547 20.8872C7.77502 21.4536 7.93013 21.8078 8.12424 22.0782C8.21819 22.2164 8.3281 22.3318 8.46017 22.4246C8.52883 22.469 8.60203 22.5041 8.67822 22.5292L8.6339 22.5173C8.64719 22.5213 8.65783 22.5331 8.66758 22.5371C8.70303 22.5479 8.72696 22.5519 8.77217 22.5598C9.45732 22.7907 10.0078 22.317 10.0078 22.317L10.0388 22.2894L12.5941 19.6991L16.877 23.3571L16.9745 23.4035C17.8671 23.8396 18.7712 23.5969 19.2489 23.1686C19.7302 22.7374 19.9172 22.1858 19.9172 22.1858L19.9482 22.097L23.2579 3.22093C23.3519 2.75517 23.3758 2.31902 23.2721 1.89569C23.1651 1.46726 22.9182 1.09878 22.5798 0.862538C22.2957 0.670231 21.9662 0.577408 21.6341 0.596109ZM21.5446 2.619C21.541 2.68117 21.5517 2.67426 21.5269 2.79366V2.80451L18.2482 21.4842C18.234 21.5108 18.2101 21.569 18.1445 21.6273C18.0754 21.6884 18.0204 21.7269 17.7324 21.5996L12.494 17.1285L9.32969 20.3395L9.99446 15.6129L18.5531 6.73188C18.9059 6.36677 18.788 6.2898 18.788 6.2898C18.8128 5.84181 18.2553 6.15856 18.2553 6.15856L7.46302 13.6018L7.45947 13.5821L2.28669 11.6431V11.6391L2.2734 11.6362C2.28246 11.6328 2.29134 11.6288 2.29999 11.6243L2.32835 11.6085L2.35583 11.5977C2.35583 11.5977 6.97464 9.43071 11.6697 7.2302C14.0203 6.12797 16.3886 5.01785 18.2101 4.16133C19.2903 3.65512 20.3717 3.15186 21.4542 2.65156C21.5269 2.61999 21.4923 2.619 21.5446 2.619Z" fill="white"/>
</svg>
