<svg width="85" height="85" viewBox="0 0 85 85" fill="none" xmlns="http://www.w3.org/2000/svg">
<path d="M77.2073 49.5586C75.7405 56.7181 72.0942 63.2491 66.7682 68.2565C61.4422 73.2639 54.6971 76.5027 47.4573 77.529V70.3612C52.8045 69.4081 57.7655 66.9408 61.7509 63.2526C65.7363 59.5644 68.5785 54.8102 69.9398 49.555L77.2073 49.5586ZM15.0581 49.5586C16.4047 54.7531 19.1986 59.459 23.1151 63.1295C27.0315 66.8 31.9098 69.2844 37.1829 70.2939V77.4794C30.0143 76.3878 23.353 73.1254 18.0973 68.1322C12.8417 63.139 9.2444 56.6552 7.79065 49.555H15.0581V49.5586ZM63.749 38.936V46.0154H60.2073C56.5727 46.0154 53.0771 47.4115 50.4436 49.9151C47.8101 52.4187 46.2401 55.8381 46.0584 59.4661L46.0406 60.174V63.7137H38.9573V60.174C38.9573 56.5415 37.5604 53.0479 35.0554 50.4158C32.5504 47.7838 29.129 46.2147 25.499 46.0331L24.7907 46.0154H21.249V38.936H63.749ZM42.499 7.0791C60.8625 7.0791 75.9642 21.0501 77.7386 38.936H70.6127C69.7485 32.0935 66.4156 25.8013 61.2394 21.2401C56.0633 16.6789 49.3997 14.1622 42.499 14.1622C35.5982 14.1622 28.9346 16.6789 23.7585 21.2401C18.5824 25.8013 15.2495 32.0935 14.3852 38.936H7.25586C9.03378 21.0501 24.1354 7.0791 42.499 7.0791Z" fill="white"/>
<path d="M22.6204 35.6992L26.4084 24.3505H28.3794L32.1675 35.6992H30.5506L29.5497 32.7273H25.2073L24.2218 35.6992H22.6204ZM25.5769 31.326H29.1648L27.3785 25.7056L25.5769 31.326ZM37.3639 35.7916C36.7377 35.7916 36.1628 35.7351 35.6393 35.6222C35.1157 35.5093 34.664 35.3194 34.2842 35.0525C33.9044 34.7753 33.6118 34.4006 33.4065 33.9284C33.2114 33.4562 33.1139 32.8608 33.1139 32.1422V24.3505H34.6691V32.1268C34.6691 32.7119 34.7718 33.1687 34.9771 33.4972C35.1927 33.8155 35.5007 34.0464 35.901 34.1902C36.3117 34.3236 36.7993 34.3903 37.3639 34.3903C37.9388 34.3903 38.4264 34.3236 38.8268 34.1902C39.2374 34.0464 39.5454 33.8155 39.7507 33.4972C39.9663 33.1687 40.074 32.7119 40.074 32.1268V24.3505H41.6293V32.1422C41.6293 32.8608 41.5266 33.4562 41.3213 33.9284C41.116 34.4006 40.8234 34.7753 40.4436 35.0525C40.074 35.3194 39.6275 35.5093 39.1039 35.6222C38.5804 35.7351 38.0004 35.7916 37.3639 35.7916ZM46.229 35.6992V25.7364H42.8413V24.3505H51.1719V25.7364H47.7843V35.6992H46.229ZM56.6594 35.7916C55.9202 35.7916 55.2684 35.7198 54.7037 35.576C54.1494 35.4323 53.6823 35.1654 53.3025 34.7753C52.9329 34.3852 52.6557 33.8103 52.471 33.0507C52.2862 32.291 52.1938 31.2952 52.1938 30.0633C52.1938 28.8315 52.2862 27.8357 52.471 27.076C52.6557 26.3061 52.938 25.721 53.3179 25.3206C53.6977 24.91 54.1648 24.6328 54.7191 24.4891C55.2735 24.3351 55.9202 24.2581 56.6594 24.2581C57.419 24.2581 58.076 24.3351 58.6304 24.4891C59.195 24.6328 59.6621 24.91 60.0316 25.3206C60.4012 25.721 60.6784 26.3061 60.8632 27.076C61.0479 27.8357 61.1403 28.8315 61.1403 30.0633C61.1403 31.2952 61.0479 32.291 60.8632 33.0507C60.6784 33.8103 60.3961 34.3852 60.0162 34.7753C59.6467 35.1654 59.1796 35.4323 58.615 35.576C58.0606 35.7198 57.4088 35.7916 56.6594 35.7916ZM56.6594 34.4057C57.1932 34.4057 57.6449 34.3493 58.0144 34.2364C58.3943 34.1234 58.6971 33.9181 58.9229 33.6204C59.1591 33.3124 59.3284 32.8762 59.4311 32.3115C59.5338 31.7367 59.5851 30.9873 59.5851 30.0633C59.5851 29.0881 59.5286 28.3079 59.4157 27.7228C59.313 27.1376 59.1488 26.6962 58.9229 26.3985C58.6971 26.1008 58.3943 25.9006 58.0144 25.798C57.6449 25.6953 57.1932 25.644 56.6594 25.644C56.1563 25.644 55.7201 25.6953 55.3505 25.798C54.9809 25.9006 54.6781 26.1008 54.442 26.3985C54.2059 26.6962 54.0262 27.1376 53.903 27.7228C53.7901 28.3079 53.7336 29.0881 53.7336 30.0633C53.7336 30.9873 53.7798 31.7367 53.8722 32.3115C53.9749 32.8762 54.1391 33.3124 54.365 33.6204C54.6011 33.9181 54.9039 34.1234 55.2735 34.2364C55.6533 34.3493 56.1153 34.4057 56.6594 34.4057Z" fill="white"/>
</svg>
